# xmcd
#
# Track frame offsets: 
#        150
#        15779
#        29011
#        42818
#        61417
#        76853
#        89531
#        111187
#        127540
#        141542
#        155184
#        167739
#        199976
#
# Disc length: 2806 seconds
#
# Revision: 1
# Processed by: cddbd v1.5.2PL0 Copyright (c) Steve Scherf et al.
# Submitted via: ExactAudioCopy v0.99pb4
#
DISCID=a90af40d
DTITLE=Hank Ray - Ballads From The Badlands Of Hearts
DYEAR=2005
DGENRE=Rock
TTITLE0=Six More Miles To The Graveyard
TTITLE1=Lost On The River
TTITLE2=Somebody's Lonesome
TTITLE3=Men With Broken Hearts
TTITLE4=A Stranger In The Night
TTITLE5=Your Turn To Cry 
TTITLE6=Alone And Forsaken
TTITLE7=The Pale Horse And His Rider
TTITLE8=I Told A Lie To My Heart
TTITLE9=Forever Is A Long, Long Time
TTITLE10=The Angel Of Death
TTITLE11=Wedding Bells
TTITLE12=DATA
EXTD=
EXTT0=
EXTT1=
EXTT2=
EXTT3=
EXTT4=
EXTT5=
EXTT6=
EXTT7=
EXTT8=
EXTT9=
EXTT10=
EXTT11=
EXTT12=
PLAYORDER=
